<svg xmlns="http://www.w3.org/2000/svg" xmlns:svg="http://www.w3.org/2000/svg" id="Layer_1" width="879.1" height="97" x="0" y="0" version="1.1" viewBox="0 0 879.1 97" xml:space="preserve"><style id="style2" type="text/css">.st0{fill:#574eb9}</style><g id="g84" transform="translate(-560.3,-1199.5)"><g id="g30"><g id="g6" style="fill:#4f46af;fill-opacity:1"><path id="path4" d="m 611.5,1296.5 c -7.4,0 -14.2,-1.2 -20.5,-3.6 -6.3,-2.4 -11.7,-5.7 -16.2,-10.1 -4.6,-4.4 -8.1,-9.5 -10.7,-15.4 -2.5,-5.9 -3.8,-12.4 -3.8,-19.4 0,-7 1.3,-13.5 3.8,-19.4 2.5,-5.9 6.1,-11 10.8,-15.4 4.6,-4.4 10.1,-7.7 16.3,-10.1 6.3,-2.4 13.1,-3.6 20.6,-3.6 8.3,0 15.8,1.4 22.4,4.2 6.7,2.8 12.3,6.8 16.8,12.1 l -13.8,12.9 c -3.5,-3.7 -7.2,-6.4 -11.3,-8.1 -4,-1.7 -8.4,-2.6 -13.3,-2.6 -4.5,0 -8.6,0.7 -12.3,2.2 -3.8,1.5 -7,3.6 -9.7,6.2 -2.7,2.7 -4.8,5.9 -6.3,9.5 -1.5,3.7 -2.2,7.7 -2.2,12.2 0,4.3 0.7,8.3 2.2,12 1.5,3.7 3.6,6.9 6.3,9.6 2.7,2.7 5.9,4.8 9.6,6.3 3.7,1.5 7.8,2.3 12.3,2.3 4.3,0 8.5,-0.7 12.5,-2.1 4.1,-1.4 8,-3.8 11.9,-7.1 l 12.3,15.7 c -5.2,3.9 -11.1,6.9 -17.8,8.9 -6.5,1.8 -13.2,2.8 -19.9,2.8 z m 18.1,-14.7 v -35.2 h 19.8 v 38.1 z" class="st0" style="fill:#4f46af;fill-opacity:1"/></g><g id="g10" style="fill:#4f46af;fill-opacity:1"><path id="path8" d="m 657.2,1294.9 41.7,-93.8 h 21.4 l 42.1,93.8 h -22.8 l -34.4,-82.8 h 8.7 l -34.4,82.8 z" class="st0" style="fill:#4f46af;fill-opacity:1"/></g><g id="g14" style="fill:#4f46af;fill-opacity:1"><path id="path12" d="m 772.1,1294.9 v -93.8 h 18 l 39.9,66.2 h -9.5 l 39.1,-66.2 h 18.1 v 93.8 h -20.2 l -0.3,-62.6 h 4 l -31.6,52.5 H 820 l -32,-52.5 h 4.4 v 62.6 z" class="st0" style="fill:#4f46af;fill-opacity:1"/></g><g id="g18" style="fill:#4f46af;fill-opacity:1"><path id="path16" d="m 921.7,1277.5 h 51.1 v 17.4 h -72.6 v -93.8 H 971 v 17.4 h -49.3 z m -1.6,-38.7 h 45.2 v 17 h -45.2 z" class="st0" style="fill:#4f46af;fill-opacity:1"/></g><path id="path20" d="m 1031.3,1294.9 -41,-93.8 h 18.9 l 36.6,84.8 h -11 l 37.2,-84.8 h 17.3 l -40.9,93.8 z" style="fill:#f6f5fa;fill-opacity:1"/><path id="path22" d="m 1083,1294.9 42.2,-93.8 h 17.2 l 42.3,93.8 h -18.4 l -36.2,-84.5 h 7 l -36.3,84.5 z" style="fill:#f6f5fa;fill-opacity:1"/><path id="path24" d="m 1234.8,1296.3 c -12.8,0 -22.8,-3.6 -30.1,-10.9 -7.3,-7.2 -10.9,-17.7 -10.9,-31.5 v -52.8 h 17.4 v 52.3 c 0,9.6 2.1,16.7 6.2,21 4.2,4.4 10,6.6 17.6,6.6 7.6,0 13.4,-2.2 17.6,-6.6 4.1,-4.4 6.2,-11.4 6.2,-21 v -52.3 h 17.2 v 52.8 c 0,13.8 -3.6,24.3 -10.9,31.5 -7.3,7.3 -17.4,10.9 -30.3,10.9 z" style="fill:#f6f5fa;fill-opacity:1"/><path id="path26" d="m 1300.3,1294.9 v -93.8 h 17.4 v 79.1 h 49 v 14.7 z" style="fill:#f6f5fa;fill-opacity:1"/><path id="path28" d="m 1390.9,1294.9 v -79.1 h -31.1 v -14.7 h 79.6 v 14.7 h -31.1 v 79.1 z" style="fill:#f6f5fa;fill-opacity:1"/></g></g></svg>