<svg xmlns="http://www.w3.org/2000/svg" xmlns:svg="http://www.w3.org/2000/svg" xmlns:xlink="http://www.w3.org/1999/xlink" id="svg5" width="1000" height="1000" version="1.1" viewBox="0 0 100 100" xml:space="preserve"><defs id="defs2"><linearGradient id="linearGradient21823"><stop style="stop-color:#cfa344;stop-opacity:1" id="stop21815" offset=".069"/><stop style="stop-color:#a96e0b;stop-opacity:1" id="stop6102" offset=".375"/><stop style="stop-color:#cc9a4c;stop-opacity:1" id="stop6100" offset=".554"/><stop style="stop-color:#ffd699;stop-opacity:1" id="stop21819" offset=".733"/><stop style="stop-color:#f5be39;stop-opacity:1" id="stop21821" offset="1"/></linearGradient><linearGradient id="linearGradient21738" x1="21.302" x2="175.047" y1="103.95" y2="239.446" gradientUnits="userSpaceOnUse" spreadMethod="reflect" xlink:href="#linearGradient21823"/></defs><g id="layer1" transform="translate(-21.30181,-33.604726)"><g id="g2325" transform="matrix(0.53628936,0,0,0.53628936,14.991426,15.582869)"><g id="g2387"><path id="path7080" style="fill:#000;fill-opacity:1;stroke-width:0" d="m 93.967877,106.90608 -61.634105,35.58465 a 22.06391,22.06391 119.99994 0 0 -11.031913,19.10788 l 0,71.1694 a 22.063913,22.063913 60.000066 0 0 11.031912,19.10788 l 61.634107,35.58466 a 22.063805,22.063805 7.6921022e-5 0 0 22.063842,3e-5 l 61.63459,-35.58472 a 22.063844,22.063844 120.00001 0 0 11.03193,-19.10785 v -71.1694 a 22.063842,22.063842 59.999986 0 0 -11.03193,-19.10785 l -61.63459,-35.58471 a 22.06381,22.06381 179.99992 0 0 -22.063843,3e-5 z" transform="matrix(-1,0,0,1,210.00005,-70.34534)"/><path id="rect10976" style="fill:url(#linearGradient21738);fill-opacity:1;stroke-width:0" d="m 104.99999,108.87586 c 3.8966,0 7.79294,0.86208 10.77867,2.58589 l 55.86791,32.2554 c 5.97148,3.44763 5.97148,8.99864 0,12.44627 l -55.86791,32.25539 c -5.97146,3.44762 -15.58642,3.44763 -21.557857,0 L 38.353412,156.16342 c -5.971424,-3.44761 -5.971434,-8.99865 0,-12.44627 l 55.867391,-32.2554 c 2.985722,-1.72382 6.882587,-2.58588 10.779187,-2.58589 z m 73.52884,49.62075 c 3.61425,-0.0815 6.09782,2.74588 6.09782,7.70185 v 64.51079 c 0,6.89527 -4.80772,15.22203 -10.77918,18.66967 l -55.86739,32.25487 c -5.97148,3.44764 -10.77919,0.67238 -10.77919,-6.22287 v -64.51079 c 0,-6.89527 4.80771,-15.22204 10.77919,-18.66966 l 55.86739,-32.25488 c 1.67948,-0.96964 3.2671,-1.44708 4.68136,-1.47898 z m -147.057686,0 c 1.414223,0.0319 3.001377,0.50933 4.680852,1.47898 l 55.868424,32.25539 c 5.971464,3.44766 10.77867,11.7744 10.77867,18.66966 v 64.51028 c 0,6.89526 -4.807206,9.67105 -10.77867,6.22339 L 36.151996,249.37892 c -5.971464,-3.44767 -10.778154,-11.7744 -10.778154,-18.66967 v -64.51027 c 0,-4.95598 2.483179,-7.78386 6.097302,-7.70237 z" transform="matrix(-1,0,0,1,210.00005,-70.34534)"/><path style="fill:#000;fill-opacity:1;stroke-width:0" id="path16931" d="m 82.987064,244.35792 c 5.1146,2.95277 9.2609,10.13415 9.26098,16.04003 -8e-5,5.90578 -4.14638,8.29942 -9.26098,5.3463 -5.11441,-2.95293 -9.26045,-10.13409 -9.26054,-16.03976 8e-5,-5.90559 4.14613,-8.29928 9.26054,-5.34657 z" transform="matrix(-1,0,0,1,210.00005,-70.34534)"/><path style="fill:#000;fill-opacity:1;stroke-width:0" id="path16929" d="m 45.185454,222.53306 c 5.11444,2.95293 9.26048,10.13409 9.26057,16.03976 -9e-5,5.90559 -4.14613,8.29929 -9.26057,5.34656 -5.11458,-2.95277 -9.26087,-10.13415 -9.26096,-16.04003 8e-5,-5.90576 4.14638,-8.2994 9.26096,-5.34629 z" transform="matrix(-1,0,0,1,210.00005,-70.34534)"/><path style="fill:#000;fill-opacity:1;stroke-width:0" id="path16927" d="m 64.086494,210.11184 c 5.11441,2.95292 9.26045,10.13408 9.26054,16.03978 -9e-5,5.90556 -4.14613,8.29926 -9.26054,5.34654 -5.1146,-2.95276 -9.2609,-10.13414 -9.26098,-16.04002 9e-5,-5.90577 4.14638,-8.29939 9.26098,-5.3463 z" transform="matrix(-1,0,0,1,210.00005,-70.34534)"/><path style="fill:#000;fill-opacity:1;stroke-width:0" id="path16925" d="m 82.987064,197.69036 c 5.1146,2.95276 9.2609,10.13416 9.26098,16.04002 -8e-5,5.90577 -4.14638,8.29941 -9.26098,5.3463 -5.11441,-2.95294 -9.26045,-10.13408 -9.26054,-16.03976 9e-5,-5.90558 4.14613,-8.29928 9.26054,-5.34656 z" transform="matrix(-1,0,0,1,210.00005,-70.34534)"/><path style="fill:#000;fill-opacity:1;stroke-width:0" id="path16923" d="m 45.185454,175.86549 c 5.11444,2.95293 9.26048,10.13409 9.26057,16.03977 -9e-5,5.90558 -4.14613,8.29927 -9.26057,5.34655 -5.11458,-2.95275 -9.26087,-10.13414 -9.26096,-16.04001 9e-5,-5.90578 4.14638,-8.2994 9.26096,-5.34631 z" transform="matrix(-1,0,0,1,210.00005,-70.34534)"/><path id="path16998" style="fill:#000;fill-opacity:1;stroke-width:0" d="m 152.73853,185.09027 c -0.14986,-0.003 -0.30123,-0.003 -0.45424,0.002 -1.91587,0.0541 -4.07417,0.71379 -6.37067,2.03967 -8.16531,4.71426 -14.58102,15.82631 -14.58102,25.25479 v 6.73499 c -4.95748,2.86222 -8.74882,9.42818 -8.74882,15.15256 v 23.57169 c 0,5.72439 3.79134,7.91306 8.74882,5.05085 l 29.16205,-16.83669 c 4.95746,-2.86223 8.74882,-9.42868 8.74882,-15.15308 v -23.57118 c 0,-5.72438 -3.79136,-7.91306 -8.74882,-5.05085 v -6.73499 c 0,-6.56495 -3.11037,-10.35448 -7.75612,-10.45931 z m -2.78691,7.52254 c 2.83613,0.002 4.71031,2.27904 4.71031,6.30401 v 6.73499 l -17.49661,10.10171 v -6.73447 c 0,-5.7244 3.79084,-12.29088 8.7483,-15.15308 1.47176,-0.84972 2.84052,-1.25413 4.038,-1.25316 z m -2.11615,28.18485 c 0.35211,0.01 0.68669,0.0989 0.99425,0.27646 1.74967,0.67351 2.04108,3.87254 0.29146,6.90294 l -0.22996,0.39843 2.46445,12.76924 -10.88461,6.28386 2.46548,-15.61972 c -1.6934,-1.04214 -1.95926,-3.86836 -0.23099,-6.86211 0.92956,-1.60998 2.10597,-2.8873 3.26698,-3.57963 0.64027,-0.38184 1.27609,-0.58575 1.86294,-0.56947 z" transform="matrix(-1,0,0,1,210.00005,-70.34534)"/><path style="fill:#000;fill-opacity:1;stroke-width:0" id="path16919" d="m 134.84802,145.348 c 5.11451,-2.95276 13.40661,-2.95277 18.52112,-1e-5 5.11436,2.95289 5.11435,7.74032 -10e-6,10.69318 -5.11451,2.95278 -13.4066,2.95278 -18.5211,-1e-5 -5.11435,-2.95285 -5.11435,-7.74028 -1e-5,-10.69316 z" transform="matrix(-1,0,0,1,210.00005,-70.34534)"/><path style="fill:#000;fill-opacity:1;stroke-width:0" id="path16917" d="m 97.046048,167.17301 c 5.114412,-2.95299 13.406822,-2.95309 18.521472,-2.3e-4 5.11451,2.95297 5.11432,7.7406 -4.2e-4,10.69341 -5.11449,2.95275 -13.40656,2.95274 -18.521052,-2e-5 -5.11433,-2.95286 -5.11433,-7.7403 0,-10.69316 z" transform="matrix(-1,0,0,1,210.00005,-70.34534)"/><path style="fill:#000;fill-opacity:1;stroke-width:0" id="path16915" d="m 94.432778,122.01424 c 5.114494,-2.95276 13.406562,-2.95277 18.521062,-2e-5 5.11433,2.95286 5.11433,7.74029 -1e-5,10.69316 -5.1145,2.95277 -13.406558,2.95277 -18.521052,1e-5 -5.11432,-2.95285 -5.11432,-7.74028 0,-10.69315 z" transform="matrix(-1,0,0,1,210.00005,-70.34534)"/><path style="fill:#000;fill-opacity:1;stroke-width:0" id="path16913" d="m 56.630918,143.83925 c 5.11442,-2.95299 13.40678,-2.9531 18.52143,-2.5e-4 5.11447,2.95296 5.11428,7.74056 -4.2e-4,10.69338 -5.1145,2.95276 -13.40653,2.95276 -18.52101,0 -5.1143,-2.95285 -5.1143,-7.74026 0,-10.69313 z" transform="matrix(-1,0,0,1,210.00005,-70.34534)"/></g></g></g></svg>